<?xml version="1.0" encoding="UTF-8" standalone="no"?>
<svg
   xmlns:dc="http://purl.org/dc/elements/1.1/"
   xmlns:cc="http://creativecommons.org/ns#"
   xmlns:rdf="http://www.w3.org/1999/02/22-rdf-syntax-ns#"
   xmlns:svg="http://www.w3.org/2000/svg"
   xmlns="http://www.w3.org/2000/svg"
   xmlns:sodipodi="http://sodipodi.sourceforge.net/DTD/sodipodi-0.dtd"
   xmlns:inkscape="http://www.inkscape.org/namespaces/inkscape"
   version="1.0"
   width="17"
   height="16"
   viewBox="0 0 12.75 12"
   preserveAspectRatio="xMidYMid meet"
   id="svg8"
   sodipodi:docname="unliked-icon.svg"
   inkscape:version="0.92.4 (5da689c313, 2019-01-14)"
   inkscape:export-filename="C:\Users\Gabriel\Desktop\MiniSpotify\MiniSpotify\MiniSpotify\Assets\Images\Icons\unliked-icon.png"
   inkscape:export-xdpi="96"
   inkscape:export-ydpi="96">
  <defs
     id="defs12" />
  <sodipodi:namedview
     pagecolor="#ffffff"
     bordercolor="#666666"
     borderopacity="1"
     objecttolerance="10"
     gridtolerance="10"
     guidetolerance="10"
     inkscape:pageopacity="0"
     inkscape:pageshadow="2"
     inkscape:window-width="1920"
     inkscape:window-height="965"
     id="namedview10"
     showgrid="false"
     units="px"
     inkscape:pagecheckerboard="true"
     inkscape:zoom="25.03158"
     inkscape:cx="4.1830877"
     inkscape:cy="11.469745"
     inkscape:window-x="-8"
     inkscape:window-y="-8"
     inkscape:window-maximized="1"
     inkscape:current-layer="svg8" />
  <metadata
     id="metadata2">
Created by potrace 1.15, written by Peter Selinger 2001-2017
<rdf:RDF>
  <cc:Work
     rdf:about="">
    <dc:format>image/svg+xml</dc:format>
    <dc:type
       rdf:resource="http://purl.org/dc/dcmitype/StillImage" />
    <dc:title />
  </cc:Work>
</rdf:RDF>
</metadata>
  <g
     transform="matrix(0.0012155,0,0,-0.00127727,-1.4054803,14.179954)"
     id="g6"
     style="fill:none;stroke:#ffffff;stroke-width:870.86895752;stroke-miterlimit:4.69999981;stroke-dasharray:none;stroke-opacity:1">
    <path
       d="m 3970,10651 c -506,-43 -991,-228 -1382,-528 -522,-400 -843,-984 -924,-1679 -22,-188 -15,-572 14,-759 108,-698 409,-1303 987,-1981 141,-167 574,-600 785,-786 311,-275 440,-380 1360,-1113 294,-234 545,-444 717,-598 182,-164 457,-446 562,-577 99,-123 221,-307 271,-408 19,-39 38,-71 41,-71 4,-1 9,9 13,21 9,36 142,254 216,354 107,144 234,285 426,474 283,279 487,451 1224,1036 843,669 1172,954 1555,1345 765,782 1159,1488 1288,2309 29,187 32,664 4,840 -89,565 -309,1012 -682,1385 -393,394 -904,642 -1485,721 -170,24 -492,23 -655,0 -711,-102 -1273,-464 -1623,-1046 -105,-174 -204,-398 -254,-577 -12,-46 -25,-83 -28,-83 -3,0 -16,37 -28,83 -117,415 -377,830 -692,1100 -332,286 -723,459 -1179,522 -137,19 -401,26 -531,16 z"
       id="path4"
       inkscape:connector-curvature="0"
       style="fill:none;stroke:#ffffff;stroke-width:870.86895752;stroke-miterlimit:4.69999981;stroke-dasharray:none;stroke-opacity:1" />
  </g>
</svg>
